<svg xmlns="http://www.w3.org/2000/svg" xmlns:xlink="http://www.w3.org/1999/xlink" viewBox="6751 4546 40 40">
  <defs>
    <style>
      .cls-1 {
        fill: #3e3e3e;
      }

      .cls-2 {
        clip-path: url(#clip-path);
      }

      .cls-3, .cls-4, .cls-5 {
        fill: #076ce2;
      }

      .cls-3, .cls-4 {
        stroke: #076ce2;
      }

      .cls-3 {
        stroke-width: 0.3px;
      }

      .cls-4 {
        stroke-width: 0.5px;
      }
    </style>
    <clipPath id="clip-path">
      <rect id="Rectangle_35" data-name="Rectangle 35" class="cls-1" width="40" height="40" transform="translate(512 4802)"/>
    </clipPath>
  </defs>
  <g id="Mask_Group_18" data-name="Mask Group 18" class="cls-2" transform="translate(6239 -256)">
    <g id="diploma" transform="translate(512 4802)">
      <g id="Group_337" data-name="Group 337">
        <g id="Group_336" data-name="Group 336">
          <path id="Path_84" data-name="Path 84" class="cls-3" d="M24,13.99a.667.667,0,0,0,.667.667h6.669a.667.667,0,0,0,0-1.334H24.669A.667.667,0,0,0,24,13.99Z"/>
          <path id="Path_85" data-name="Path 85" class="cls-3" d="M28,17.992a.667.667,0,0,0,.667.667h4a.667.667,0,1,0,0-1.334h-4A.667.667,0,0,0,28,17.992Z"/>
          <path id="Path_86" data-name="Path 86" class="cls-3" d="M27.336,10.656a.667.667,0,0,0,0-1.334H26a.667.667,0,0,0,0,1.334Z"/>
          <path id="Path_87" data-name="Path 87" class="cls-3" d="M19.333,17.325a.667.667,0,1,0,0,1.334H26a.667.667,0,0,0,0-1.334Z"/>
          <path id="Path_88" data-name="Path 88" class="cls-4" d="M22.668,36H10a2,2,0,0,1-2-2V3.319a.667.667,0,0,0-.667-.667A3.338,3.338,0,0,0,3.994,5.987a.667.667,0,0,0,1.334,0A2,2,0,0,1,6.661,4.1V34A3.338,3.338,0,0,0,10,37.333H22.668a.667.667,0,0,0,0-1.334Z"/>
          <path id="Path_89" data-name="Path 89" class="cls-3" d="M12.664,14.657H22a.667.667,0,0,0,0-1.334H12.664a.667.667,0,0,0,0,1.334Z"/>
          <path id="Path_90" data-name="Path 90" class="cls-3" d="M12.664,10.656h2.668a.667.667,0,1,0,0-1.334H12.664a.667.667,0,1,0,0,1.334Z"/>
          <path id="Path_91" data-name="Path 91" class="cls-3" d="M23.335,9.322H18a.667.667,0,0,0,0,1.334h5.335a.667.667,0,1,0,0-1.334Z"/>
          <path id="Path_92" data-name="Path 92" class="cls-4" d="M32.672,0H7.328a6.009,6.009,0,0,0-6,5.979V6.01a6.026,6.026,0,0,0,3,5.175.667.667,0,0,0,.668-1.154,4.66,4.66,0,0,1,2.334-8.7H32.672A4.674,4.674,0,0,1,37.34,6V34.014a1.941,1.941,0,0,1-.273.98.667.667,0,0,0,1.15.676,3.271,3.271,0,0,0,.457-1.657V6A6.009,6.009,0,0,0,32.672,0Z"/>
          <path id="Path_93" data-name="Path 93" class="cls-5" d="M34.673,30.664a4,4,0,1,0-4,4A4.006,4.006,0,0,0,34.673,30.664Zm-4,2.668a2.668,2.668,0,1,1,2.668-2.668A2.67,2.67,0,0,1,30.671,33.331Z"/>
          <path id="Path_94" data-name="Path 94" class="cls-5" d="M29.467,35.333a.668.668,0,0,0-.911.244L27.12,38.065l-.228-.344a.663.663,0,0,0-.516-.3l-.412-.025,1.46-2.528a.667.667,0,0,0-1.156-.667l-2,3.462a.667.667,0,0,0,.538,1l1.156.069.638.966a.666.666,0,0,0,.556.3h.021a.67.67,0,0,0,.558-.333l1.976-3.423A.667.667,0,0,0,29.467,35.333Z"/>
          <path id="Path_95" data-name="Path 95" class="cls-5" d="M35.091,34.235a.667.667,0,0,0-1.156.667l1.443,2.5-.412.025a.67.67,0,0,0-.517.3l-.227.344-1.429-2.476a.667.667,0,0,0-1.156.667l1.969,3.41a.67.67,0,0,0,.558.333h.021a.669.669,0,0,0,.557-.3l.638-.966,1.155-.07a.667.667,0,0,0,.538-1Z"/>
          <path id="Path_96" data-name="Path 96" class="cls-3" d="M12.664,18.659h4a.667.667,0,1,0,0-1.334h-4a.667.667,0,1,0,0,1.334Z"/>
          <path id="Path_97" data-name="Path 97" class="cls-3" d="M12.664,22.66h8a.667.667,0,0,0,0-1.334h-8a.667.667,0,1,0,0,1.334Z"/>
          <path id="Path_98" data-name="Path 98" class="cls-5" d="M12.734,30.962a.667.667,0,1,0,1.192-.6c-.66-1.321-.808-2.5-.4-3.17a1.231,1.231,0,0,1,1.135-.534.541.541,0,0,1,.512.216c.5.716.025,2.9-.469,4.218a.667.667,0,0,0,1.1.706c.285-.284.594-.568.862-.8v.326A.667.667,0,0,0,17.8,31.8a8.339,8.339,0,0,1,.956-.817l-.024.048a.668.668,0,0,0,.6.964H22a.667.667,0,1,0,0-1.334H20.265a1.288,1.288,0,0,0-.12-.9.928.928,0,0,0-.812-.434,2.6,2.6,0,0,0-1.34.562.77.77,0,0,0-.468-.638c-.178-.073-.408-.169-.964.165a4.615,4.615,0,0,0-.289-3.3,1.851,1.851,0,0,0-1.608-.79,2.546,2.546,0,0,0-2.27,1.166C11.729,27.571,11.853,29.2,12.734,30.962Z"/>
          <path id="Path_99" data-name="Path 99" class="cls-3" d="M30.671,21.993A.667.667,0,0,0,30,21.327H23.335a.667.667,0,1,0,0,1.334H30A.667.667,0,0,0,30.671,21.993Z"/>
        </g>
      </g>
    </g>
  </g>
</svg>
