<svg xmlns="http://www.w3.org/2000/svg" xmlns:xlink="http://www.w3.org/1999/xlink" viewBox="6345 4452 40 40">
  <defs>
    <style>
      .cls-1 {
        fill: #3e3e3e;
      }

      .cls-2 {
        clip-path: url(#clip-path);
      }

      .cls-3 {
        fill: #076ce2;
      }
    </style>
    <clipPath id="clip-path">
      <rect id="Rectangle_21" data-name="Rectangle 21" class="cls-1" width="40" height="40" transform="translate(355 4726)"/>
    </clipPath>
  </defs>
  <g id="Mask_Group_13" data-name="Mask Group 13" class="cls-2" transform="translate(5990 -274)">
    <g id="placeholder" transform="translate(359.998 4726)">
      <g id="Group_223" data-name="Group 223" transform="translate(0 0)">
        <g id="Group_222" data-name="Group 222">
          <path id="Path_71" data-name="Path 71" class="cls-3" d="M36.656,38.591,31.383,27.436a.987.987,0,0,0-.506-.486l-2.623-1.168L32.8,18.164c.011-.018.021-.037.031-.056A12.45,12.45,0,0,0,30.486,3.583,12.445,12.445,0,0,0,10.668,18.108q.015.028.031.056l4.546,7.619-2.639,1.174a.986.986,0,0,0-.491.48L6.842,38.591a.987.987,0,0,0,1.294,1.324l6.606-2.941,6.606,2.941a.988.988,0,0,0,.8,0l6.606-2.941,6.606,2.941a.987.987,0,0,0,1.293-1.324ZM12.411,17.18a10.352,10.352,0,0,1-1.13-4.8A10.521,10.521,0,0,1,21.6,1.975,10.473,10.473,0,0,1,31.087,17.18L22.6,31.41a.987.987,0,0,1-1.7,0ZM29.158,34.991a.988.988,0,0,0-.8,0l-6.606,2.941-6.606-2.941a.988.988,0,0,0-.8,0L9.764,37.029l3.98-8.418,2.52-1.122,2.943,4.932a2.961,2.961,0,0,0,5.085,0l2.943-4.932,2.52,1.122,3.979,8.417Z" transform="translate(-6.747 0)"/>
        </g>
      </g>
      <g id="Group_225" data-name="Group 225" transform="translate(10.498 7.938)">
        <g id="Group_224" data-name="Group 224">
          <path id="Path_72" data-name="Path 72" class="cls-3" d="M25.424,10.716a4.5,4.5,0,1,0,4.5,4.5A4.51,4.51,0,0,0,25.424,10.716Zm0,7.035a2.531,2.531,0,1,1,2.531-2.531A2.533,2.533,0,0,1,25.424,17.752Z" transform="translate(-20.919 -10.716)"/>
        </g>
      </g>
    </g>
  </g>
</svg>
