<svg xmlns="http://www.w3.org/2000/svg" viewBox="6175.266 5844 40 40.18">
  <defs>
    <style>
      .cls-1 {
        fill: #fff;
      }
    </style>
  </defs>
  <g id="logo" transform="translate(6022.02 5708.412)">
    <g id="Group_65" data-name="Group 65" transform="translate(153.246 135.588)">
      <g id="Group_64" data-name="Group 64" transform="translate(0 0)">
        <path id="Path_2" data-name="Path 2" class="cls-1" d="M187.418,141.427a19.918,19.918,0,0,0-31.347,24.023l-2.826,10.317L163.8,173a19.908,19.908,0,0,0,9.518,2.423h.008a19.918,19.918,0,0,0,14.088-34ZM173.33,172.06h-.007a16.532,16.532,0,0,1-8.425-2.307l-.6-.359-6.265,1.643,1.672-6.107-.394-.626a16.555,16.555,0,1,1,14.023,7.755Zm9.08-12.394c-.5-.249-2.944-1.453-3.4-1.619s-.788-.249-1.12.249-1.285,1.619-1.576,1.951-.581.374-1.078.125a13.593,13.593,0,0,1-4-2.469,14.991,14.991,0,0,1-2.768-3.446c-.29-.5-.031-.767.218-1.015.224-.223.5-.581.746-.872a3.393,3.393,0,0,0,.5-.83.916.916,0,0,0-.041-.872c-.124-.249-1.12-2.7-1.534-3.694-.4-.97-.814-.839-1.12-.854-.29-.014-.622-.017-.954-.017a1.828,1.828,0,0,0-1.327.623,5.579,5.579,0,0,0-1.742,4.15,9.675,9.675,0,0,0,2.032,5.146c.249.332,3.509,5.357,8.5,7.512a28.639,28.639,0,0,0,2.837,1.048,6.825,6.825,0,0,0,3.134.2c.956-.143,2.944-1.2,3.359-2.366a4.158,4.158,0,0,0,.29-2.366C183.239,160.04,182.907,159.915,182.41,159.666Z" transform="translate(-153.246 -135.588)"/>
      </g>
    </g>
  </g>
</svg>
