<svg id="Camada_1" data-name="Camada 1" xmlns="http://www.w3.org/2000/svg" viewBox="0 0 200 200"><title>video-call</title><g id="video-call"><path id="Path_101" data-name="Path 101" d="M200,29.3V140.63l-11.72,12.1H11.72L0,140.63V29.3A17.56,17.56,0,0,1,17.53,11.72H182.42A17.55,17.55,0,0,1,200,29.25Z" transform="translate(0 0)" style="fill:#076ce2"/><path id="Path_102" data-name="Path 102" d="M200,29.3V140.63l-11.72,12.1H100v-141h82.42A17.55,17.55,0,0,1,200,29.25Z" transform="translate(0 0)" style="fill:#085fc4"/><path id="Path_103" data-name="Path 103" d="M188.28,29.3V152.74H11.72V29.3a5.8,5.8,0,0,1,5.74-5.86h165a5.79,5.79,0,0,1,5.86,5.73Z" transform="translate(0 0)" style="fill:#cae8f9"/><path id="Path_104" data-name="Path 104" d="M188.28,29.3V152.74H100V23.44h82.42a5.79,5.79,0,0,1,5.86,5.74Z" transform="translate(0 0)" style="fill:#b7e0f6"/><path id="Path_105" data-name="Path 105" d="M194.14,152.73H5.86A6.2,6.2,0,0,1,0,146.48a5.85,5.85,0,0,1,5.85-5.85H194.14a5.84,5.84,0,0,1,5.86,5.85h0A6.2,6.2,0,0,1,194.14,152.73Z" transform="translate(0 0)"/><path id="Path_106" data-name="Path 106" d="M123.44,164.84H76.56a5.81,5.81,0,0,0-5.86,5.74v23.56A5.8,5.8,0,0,0,76.44,200h47a5.8,5.8,0,0,0,5.86-5.74V170.7a5.81,5.81,0,0,0-5.74-5.86Z" transform="translate(0 0)" style="fill:#0966d1"/><path id="Path_107" data-name="Path 107" d="M152.73,194.14A5.79,5.79,0,0,1,147,200H53.13a5.86,5.86,0,0,1,0-11.72h93.75a5.81,5.81,0,0,1,5.86,5.74A.49.49,0,0,1,152.73,194.14Z" transform="translate(0 0)" style="fill:#076ce2"/><path id="Path_108" data-name="Path 108" d="M182.42,0H100A17.57,17.57,0,0,0,82.42,17.53V64.45A17.54,17.54,0,0,0,94.14,81V99.61A5.85,5.85,0,0,0,97.77,105a5.6,5.6,0,0,0,6.33-1.29L125.9,82h56.52A17.55,17.55,0,0,0,200,64.5V17.58A17.56,17.56,0,0,0,182.47,0Z" transform="translate(0 0)" style="fill:#09b27e"/><path id="Path_109" data-name="Path 109" d="M200,17.58V64.45A17.56,17.56,0,0,1,182.47,82H141V0h41.4A17.56,17.56,0,0,1,200,17.53Z" transform="translate(0 0)" style="fill:#09a273"/><g id="Group_353" data-name="Group 353"><path id="Path_110" data-name="Path 110" d="M176.56,29.3a5.81,5.81,0,0,1-5.74,5.86h-59.1a5.86,5.86,0,0,1,0-11.72h59a5.8,5.8,0,0,1,5.86,5.74Z" transform="translate(0 0)" style="fill:#fff"/><path id="Path_111" data-name="Path 111" d="M176.56,52.73a5.8,5.8,0,0,1-5.74,5.86h-59.1a5.86,5.86,0,1,1,0-11.72h59a5.8,5.8,0,0,1,5.86,5.75Z" transform="translate(0 0)" style="fill:#fff"/></g><g id="Group_354" data-name="Group 354"><path id="Path_112" data-name="Path 112" d="M176.56,52.73a5.79,5.79,0,0,1-5.74,5.86H141V46.87H170.7a5.8,5.8,0,0,1,5.86,5.75Z" transform="translate(0 0)" style="fill:#eaeaea"/><path id="Path_113" data-name="Path 113" d="M176.56,29.3a5.8,5.8,0,0,1-5.74,5.86H141V23.44H170.7a5.8,5.8,0,0,1,5.86,5.74Z" transform="translate(0 0)" style="fill:#eaeaea"/></g><path id="Path_114" data-name="Path 114" d="M59,105.47a35.25,35.25,0,0,0-35.15,35.16v5.85a6.14,6.14,0,0,0,5.86,6.25H88.28a6.14,6.14,0,0,0,5.86-6.25v-5.85A35.26,35.26,0,0,0,59,105.47Z" transform="translate(0 0)" style="fill:#0966d1"/><path id="Path_115" data-name="Path 115" d="M94.14,140.63v5.85a6.14,6.14,0,0,1-5.86,6.25H59V105.47A35.26,35.26,0,0,1,94.14,140.63Z" transform="translate(0 0)" style="fill:#085fc4"/><path id="Path_116" data-name="Path 116" d="M59,70.31A23.44,23.44,0,1,0,82.42,93.75,23.44,23.44,0,0,0,59,70.31Z" transform="translate(0 0)" style="fill:#076ce2"/><path id="Path_117" data-name="Path 117" d="M82.42,93.75A23.51,23.51,0,0,1,59,117.19V70.31A23.51,23.51,0,0,1,82.42,93.75Z" transform="translate(0 0)" style="fill:#085fc4"/><path id="Path_118" data-name="Path 118" d="M200,140.63V159a17.56,17.56,0,0,1-17.53,17.58H17.58A17.54,17.54,0,0,1,0,159v-18.4Z" transform="translate(0 0)" style="fill:#076ce2"/><path id="Path_119" data-name="Path 119" d="M129.3,170.7v23.44a5.8,5.8,0,0,1-5.74,5.86H100V164.84h23.44a5.8,5.8,0,0,1,5.86,5.74Z" transform="translate(0 0)" style="fill:#085fc4"/><g id="Group_355" data-name="Group 355"><path id="Path_120" data-name="Path 120" d="M200,140.63V159a17.56,17.56,0,0,1-17.53,17.58H100V140.63Z" transform="translate(0 0)" style="fill:#085fc4"/><path id="Path_121" data-name="Path 121" d="M152.73,194.14A5.79,5.79,0,0,1,147,200H100V188.28h46.88a5.8,5.8,0,0,1,5.85,5.74Z" transform="translate(0 0)" style="fill:#085fc4"/></g></g></svg>