<svg xmlns="http://www.w3.org/2000/svg" xmlns:xlink="http://www.w3.org/1999/xlink" viewBox="6133 952 60 60">
  <defs>
    <style>
      .cls-1 {
        fill: #3e3e3e;
      }

      .cls-2 {
        clip-path: url(#clip-path);
      }
    </style>
    <clipPath id="clip-path">
      <rect id="Rectangle_15" data-name="Rectangle 15" class="cls-1" width="60" height="60" transform="translate(96 2452)"/>
    </clipPath>
  </defs>
  <g id="Mask_Group_6" data-name="Mask Group 6" class="cls-2" transform="translate(6037 -1500)">
    <g id="_005-speedometer" data-name="005-speedometer" transform="translate(96 2452)">
      <g id="Group_151" data-name="Group 151">
        <g id="Group_150" data-name="Group 150">
          <path id="Path_38" data-name="Path 38" class="cls-1" d="M51.213,21.892A29.8,29.8,0,0,0,30,13.106a30.175,30.175,0,0,0-6.966.812.879.879,0,0,0,.406,1.71,28.271,28.271,0,0,1,34.789,26.6H55.012a24.844,24.844,0,0,0-4.574-13.57A.879.879,0,0,0,49,29.673a23.1,23.1,0,0,1,4.25,12.554H33.484a3.625,3.625,0,0,0-.555-1.116L31.268,22.993a1.274,1.274,0,1,0-2.536,0L27.071,41.111a3.623,3.623,0,0,0-.555,1.116H20.592a.879.879,0,0,0,0,1.758h5.846a3.635,3.635,0,0,0,7.123,0H59.121A.879.879,0,0,0,60,43.106,29.8,29.8,0,0,0,51.213,21.892ZM30,28.417l1.042,11.361a3.625,3.625,0,0,0-2.084,0Zm0,16.72a1.877,1.877,0,1,1,1.877-1.877A1.879,1.879,0,0,1,30,45.136Z"/>
        </g>
      </g>
      <g id="Group_153" data-name="Group 153">
        <g id="Group_152" data-name="Group 152">
          <path id="Path_39" data-name="Path 39" class="cls-1" d="M48.082,25.8A25.027,25.027,0,0,0,4.989,42.227H1.772A28.411,28.411,0,0,1,19.964,16.7a.879.879,0,0,0-.625-1.643A30.012,30.012,0,0,0,0,43.106a.879.879,0,0,0,.879.879H17.069a.879.879,0,0,0,0-1.758H6.748a23.269,23.269,0,0,1,40.065-15.21.879.879,0,1,0,1.27-1.215Z"/>
        </g>
      </g>
      <g id="Group_155" data-name="Group 155">
        <g id="Group_154" data-name="Group 154">
          <path id="Path_40" data-name="Path 40" class="cls-1" d="M50.628,38.57H46a.879.879,0,0,0,0,1.758h4.623a.879.879,0,0,0,0-1.758Z"/>
        </g>
      </g>
      <g id="Group_157" data-name="Group 157">
        <g id="Group_156" data-name="Group 156">
          <path id="Path_41" data-name="Path 41" class="cls-1" d="M14,38.57H9.372a.879.879,0,0,0,0,1.758H14a.879.879,0,0,0,0-1.758Z"/>
        </g>
      </g>
      <g id="Group_159" data-name="Group 159">
        <g id="Group_158" data-name="Group 158">
          <path id="Path_42" data-name="Path 42" class="cls-1" d="M47.757,31.366a.879.879,0,0,0-1.205-.3L44.582,32.24a.879.879,0,1,0,.9,1.509l1.969-1.177A.879.879,0,0,0,47.757,31.366Z"/>
        </g>
      </g>
      <g id="Group_161" data-name="Group 161">
        <g id="Group_160" data-name="Group 160">
          <path id="Path_43" data-name="Path 43" class="cls-1" d="M21,27.27,19.818,25.3a.879.879,0,1,0-1.509.9l1.177,1.969A.879.879,0,1,0,21,27.27Z"/>
        </g>
      </g>
      <g id="Group_163" data-name="Group 163">
        <g id="Group_162" data-name="Group 162">
          <path id="Path_44" data-name="Path 44" class="cls-1" d="M40.966,24.752a.879.879,0,0,0-1.2.331l-1.132,2a.879.879,0,1,0,1.529.868l1.132-2A.879.879,0,0,0,40.966,24.752Z"/>
        </g>
      </g>
      <g id="Group_165" data-name="Group 165">
        <g id="Group_164" data-name="Group 164">
          <path id="Path_45" data-name="Path 45" class="cls-1" d="M15.192,32.59l-2-1.132a.879.879,0,0,0-.868,1.529l2,1.132a.879.879,0,0,0,.868-1.529Z"/>
        </g>
      </g>
    </g>
  </g>
</svg>
