<svg xmlns="http://www.w3.org/2000/svg" xmlns:xlink="http://www.w3.org/1999/xlink" viewBox="6572 952 60 60">
  <defs>
    <style>
      .cls-1 {
        fill: #3e3e3e;
      }

      .cls-2 {
        clip-path: url(#clip-path);
      }
    </style>
    <clipPath id="clip-path">
      <rect id="Rectangle_15" data-name="Rectangle 15" class="cls-1" width="60" height="60" transform="translate(96 2452)"/>
    </clipPath>
  </defs>
  <g id="Mask_Group_5" data-name="Mask Group 5" class="cls-2" transform="translate(6476 -1500)">
    <g id="_004-sitemap" data-name="004-sitemap" transform="translate(96 2452)">
      <g id="Group_143" data-name="Group 143">
        <g id="Group_142" data-name="Group 142">
          <path id="Path_34" data-name="Path 34" class="cls-1" d="M24.3,24.325h-.085a.879.879,0,0,0,0,1.758H24.3a.879.879,0,0,0,0-1.758Z"/>
        </g>
      </g>
      <g id="Group_145" data-name="Group 145">
        <g id="Group_144" data-name="Group 144">
          <path id="Path_35" data-name="Path 35" class="cls-1" d="M31.31,24.325h-.085a.879.879,0,0,0,0,1.758h.085a.879.879,0,0,0,0-1.758Z"/>
        </g>
      </g>
      <g id="Group_147" data-name="Group 147">
        <g id="Group_146" data-name="Group 146">
          <path id="Path_36" data-name="Path 36" class="cls-1" d="M54.31,52.941V43.5a.879.879,0,0,0-.489-.788l-8.971-4.447a18.095,18.095,0,0,0,.463-9.927.879.879,0,1,0-1.711.4A16.306,16.306,0,0,1,39.862,43.39V37.164a4.54,4.54,0,0,0-4.534-4.535H34.2A9.355,9.355,0,0,0,37.13,26.27c.666-.588,1.695-2.05,1.626-5.446,0-.113-.009-.223-.015-.332A16.309,16.309,0,0,1,42.5,25.579a.879.879,0,0,0,1.59-.749,18,18,0,0,0-.88-1.641h6.156a.879.879,0,0,0,.826-.579L54.069,11.9a3.584,3.584,0,1,0-1.818-.143l-3.5,9.67H41.995a18.085,18.085,0,0,0-3.956-3.745,6.78,6.78,0,0,0-1.406-1.937V3.584a.879.879,0,0,0-.879-.879H30.477a3.585,3.585,0,1,0,0,1.758h4.4V14.4a4.664,4.664,0,0,0-1.06-1.09c-2.291-1.712-6.208-1.8-8.134-1.314a8.971,8.971,0,0,1-4.06.006.879.879,0,0,0-1.082,1.085l.17.605a6.37,6.37,0,0,0-2.981,3.825,18.186,18.186,0,0,0-2.986,2.5H11.154l-3.3-6.757A3.583,3.583,0,1,0,6,13.457l3.818,7.826a.879.879,0,0,0,.79.494h2.651A17.976,17.976,0,0,0,9.725,32.5q0,.244.007.488L6.155,34.9a.879.879,0,0,0-.466.776v6.167a.879.879,0,0,0,1.758,0V36.2l2.438-1.3a18.033,18.033,0,0,0,6.079,11.245l.007.006.015.013h0a18.023,18.023,0,0,0,10.136,4.3v5.95a.879.879,0,0,0,.879.879h3.454a3.584,3.584,0,1,0,0-1.758H27.881v-5A18.038,18.038,0,0,0,39.545,46.16l.034-.031a18.039,18.039,0,0,0,4.627-6.218l8.347,4.138v8.891a3.584,3.584,0,1,0,1.758,0ZM51.605,8.378A1.827,1.827,0,1,1,53.432,10.2,1.829,1.829,0,0,1,51.605,8.378ZM27,5.411a1.827,1.827,0,1,1,1.826-1.827A1.829,1.829,0,0,1,27,5.411ZM4.742,9.919a1.826,1.826,0,1,1,1.826,1.826A1.829,1.829,0,0,1,4.742,9.919Zm29.189,44.67A1.827,1.827,0,1,1,32.1,56.416,1.829,1.829,0,0,1,33.931,54.589Zm1.3-34.549a5.084,5.084,0,0,0,.428-2.777A5.373,5.373,0,0,1,37,20.858a8.868,8.868,0,0,1-.329,2.859,8.676,8.676,0,0,0-1.758-3.178A3.606,3.606,0,0,0,35.227,20.04Zm.155,5.823a7.622,7.622,0,0,1-15.244-.051.871.871,0,0,0-.008-.115,5.708,5.708,0,0,1,1.315-2.06c.983-1.1,2.377-1.1,4.757-.991a22.544,22.544,0,0,0,4.936-.173,7.633,7.633,0,0,0,2.431-.8A8.5,8.5,0,0,1,35.382,25.863Zm-16.523-5.19a11.822,11.822,0,0,1,.447-2.315c0-.011.007-.023.011-.035.785-2.507,2.2-3.126,2.692-3.268a.879.879,0,0,0,.6-1.083l-.008-.03a10.49,10.49,0,0,0,3.5-.24c1.621-.406,4.922-.277,6.654,1.017a2.506,2.506,0,0,1,1.091,1.992c.006.146.018.3.031.458.113,1.412.241,3.013-3.041,3.57a21.112,21.112,0,0,1-4.565.15c-2.344-.1-4.559-.2-6.145,1.577a9.956,9.956,0,0,0-1.122,1.494A10.086,10.086,0,0,1,18.859,20.673ZM38.1,45.076a16.252,16.252,0,0,1-2.5,1.7V41.5a.879.879,0,0,0-1.758,0V47.6a16.273,16.273,0,0,1-12.162,0V41.5a.879.879,0,0,0-1.758,0V46.77a16.232,16.232,0,0,1-2.5-1.7v-2.88a.879.879,0,0,0-1.758,0v1.2a16.28,16.28,0,0,1,.065-21.85.9.9,0,0,0,.1-.108,16.334,16.334,0,0,1,1.324-1.27c-.013.111-.026.222-.038.336-.381,3.808.853,5.811,1.341,6.44a9.362,9.362,0,0,0,2.876,5.691H20.195a4.54,4.54,0,0,0-4.534,4.535v1.387a.879.879,0,0,0,1.758,0V37.164a2.78,2.78,0,0,1,2.776-2.777h3.768a9.347,9.347,0,0,0,7.6,0h3.769A2.78,2.78,0,0,1,38.1,37.164ZM53.432,58.242a1.826,1.826,0,1,1,1.827-1.826A1.829,1.829,0,0,1,53.432,58.242Z"/>
        </g>
      </g>
      <g id="Group_149" data-name="Group 149">
        <g id="Group_148" data-name="Group 148">
          <path id="Path_37" data-name="Path 37" class="cls-1" d="M7.447,47.926V45.444a.879.879,0,0,0-1.758,0v2.482a3.584,3.584,0,1,0,1.758,0Zm-.879,5.3A1.826,1.826,0,1,1,8.395,51.4,1.829,1.829,0,0,1,6.568,53.227Z"/>
        </g>
      </g>
    </g>
  </g>
</svg>
