<svg xmlns="http://www.w3.org/2000/svg" xmlns:xlink="http://www.w3.org/1999/xlink" viewBox="7010 952 60 60">
  <defs>
    <style>
      .cls-1 {
        fill: #3e3e3e;
      }

      .cls-2 {
        clip-path: url(#clip-path);
      }
    </style>
    <clipPath id="clip-path">
      <rect id="Rectangle_19" data-name="Rectangle 19" class="cls-1" width="60" height="60" transform="translate(96 2452)"/>
    </clipPath>
  </defs>
  <g id="Mask_Group_9" data-name="Mask Group 9" class="cls-2" transform="translate(6914 -1500)">
    <g id="server" transform="translate(96 2452)">
      <g id="Group_183" data-name="Group 183">
        <g id="Group_182" data-name="Group 182">
          <path id="Path_54" data-name="Path 54" class="cls-1" d="M57.908,18.83A2.1,2.1,0,0,0,60,16.738V3.822A2.1,2.1,0,0,0,57.908,1.73H52.031a.879.879,0,0,0,0,1.758h5.876a.335.335,0,0,1,.334.335V16.738a.335.335,0,0,1-.334.335H2.092a.335.335,0,0,1-.334-.335V3.822a.335.335,0,0,1,.334-.335H48.555a.879.879,0,0,0,0-1.758H2.092A2.1,2.1,0,0,0,0,3.822V16.738A2.1,2.1,0,0,0,2.092,18.83H5.683V21.45H2.092A2.1,2.1,0,0,0,0,23.542V36.458A2.1,2.1,0,0,0,2.092,38.55H5.683V41.17H2.092A2.1,2.1,0,0,0,0,43.262V56.178A2.1,2.1,0,0,0,2.092,58.27H26.8a.879.879,0,0,0,0-1.758H2.092a.335.335,0,0,1-.334-.335V43.262a.335.335,0,0,1,.334-.334H57.908a.335.335,0,0,1,.334.334V56.178a.335.335,0,0,1-.334.335H30.586a.879.879,0,1,0,0,1.758H57.908A2.1,2.1,0,0,0,60,56.178V43.262a2.1,2.1,0,0,0-2.092-2.092H54.317V38.55h3.591A2.1,2.1,0,0,0,60,36.458V23.542a2.1,2.1,0,0,0-2.092-2.092H54.317V18.83ZM52.559,41.17H7.441V38.55H52.559Zm5.349-17.962a.335.335,0,0,1,.334.334V36.458a.335.335,0,0,1-.334.334H2.092a.335.335,0,0,1-.334-.334V23.542a.335.335,0,0,1,.334-.334H10.82a.879.879,0,1,0,0-1.758H7.441V18.83H52.559V21.45H14.336a.879.879,0,1,0,0,1.758Z"/>
        </g>
      </g>
      <g id="Group_185" data-name="Group 185">
        <g id="Group_184" data-name="Group 184">
          <path id="Path_55" data-name="Path 55" class="cls-1" d="M52.083,6.772a3.661,3.661,0,1,0,3.661,3.661A3.666,3.666,0,0,0,52.083,6.772Zm0,5.565a1.9,1.9,0,1,1,1.9-1.9A1.906,1.906,0,0,1,52.083,12.337Z"/>
        </g>
      </g>
      <g id="Group_187" data-name="Group 187">
        <g id="Group_186" data-name="Group 186">
          <path id="Path_56" data-name="Path 56" class="cls-1" d="M42.629,6.772a3.661,3.661,0,1,0,3.661,3.661A3.665,3.665,0,0,0,42.629,6.772Zm0,5.565a1.9,1.9,0,1,1,1.9-1.9A1.906,1.906,0,0,1,42.63,12.337Z"/>
        </g>
      </g>
      <g id="Group_189" data-name="Group 189">
        <g id="Group_188" data-name="Group 188">
          <path id="Path_57" data-name="Path 57" class="cls-1" d="M35.822,9.554H5.965a.879.879,0,1,0,0,1.758H35.822a.879.879,0,0,0,0-1.758Z"/>
        </g>
      </g>
      <g id="Group_191" data-name="Group 191">
        <g id="Group_190" data-name="Group 190">
          <path id="Path_58" data-name="Path 58" class="cls-1" d="M52.083,26.492a3.661,3.661,0,1,0,3.661,3.661A3.666,3.666,0,0,0,52.083,26.492Zm0,5.565a1.9,1.9,0,1,1,1.9-1.9A1.906,1.906,0,0,1,52.083,32.057Z"/>
        </g>
      </g>
      <g id="Group_193" data-name="Group 193">
        <g id="Group_192" data-name="Group 192">
          <path id="Path_59" data-name="Path 59" class="cls-1" d="M42.629,26.492a3.661,3.661,0,1,0,3.661,3.661A3.665,3.665,0,0,0,42.629,26.492Zm0,5.565a1.9,1.9,0,1,1,1.9-1.9A1.906,1.906,0,0,1,42.629,32.057Z"/>
        </g>
      </g>
      <g id="Group_195" data-name="Group 195">
        <g id="Group_194" data-name="Group 194">
          <path id="Path_60" data-name="Path 60" class="cls-1" d="M35.822,29.274H5.965a.879.879,0,0,0,0,1.758H35.822a.879.879,0,0,0,0-1.758Z"/>
        </g>
      </g>
      <g id="Group_197" data-name="Group 197">
        <g id="Group_196" data-name="Group 196">
          <path id="Path_61" data-name="Path 61" class="cls-1" d="M52.083,46.211a3.661,3.661,0,1,0,3.661,3.661A3.666,3.666,0,0,0,52.083,46.211Zm0,5.565a1.9,1.9,0,1,1,1.9-1.9A1.906,1.906,0,0,1,52.083,51.776Z"/>
        </g>
      </g>
      <g id="Group_199" data-name="Group 199">
        <g id="Group_198" data-name="Group 198">
          <path id="Path_62" data-name="Path 62" class="cls-1" d="M42.63,46.211a3.661,3.661,0,1,0,3.661,3.661A3.665,3.665,0,0,0,42.63,46.211Zm0,5.565a1.9,1.9,0,1,1,1.9-1.9A1.906,1.906,0,0,1,42.629,51.776Z"/>
        </g>
      </g>
      <g id="Group_201" data-name="Group 201">
        <g id="Group_200" data-name="Group 200">
          <path id="Path_63" data-name="Path 63" class="cls-1" d="M35.822,48.994H5.965a.879.879,0,0,0,0,1.758H35.822a.879.879,0,1,0,0-1.758Z"/>
        </g>
      </g>
      <g id="Group_203" data-name="Group 203">
        <g id="Group_202" data-name="Group 202">
          <path id="Path_64" data-name="Path 64" class="cls-1" d="M8.552,32.057H5.965a.879.879,0,0,0,0,1.758H8.552a.879.879,0,0,0,0-1.758Z"/>
        </g>
      </g>
    </g>
  </g>
</svg>
