<svg xmlns="http://www.w3.org/2000/svg" xmlns:xlink="http://www.w3.org/1999/xlink" viewBox="6572 1398 60 60">
  <defs>
    <style>
      .cls-1 {
        fill: #3e3e3e;
      }

      .cls-2 {
        clip-path: url(#clip-path);
      }
    </style>
    <clipPath id="clip-path">
      <rect id="Rectangle_15" data-name="Rectangle 15" class="cls-1" width="60" height="60" transform="translate(96 2452)"/>
    </clipPath>
  </defs>
  <g id="Mask_Group_3" data-name="Mask Group 3" class="cls-2" transform="translate(6476 -1054)">
    <g id="_006-trophy" data-name="006-trophy" transform="translate(96 2452)">
      <g id="Group_123" data-name="Group 123">
        <g id="Group_122" data-name="Group 122">
          <path id="Path_24" data-name="Path 24" class="cls-1" d="M55.314,41.233c-.055-.016-1.358-.39-3.266-.766a.879.879,0,1,0-.339,1.725c1.059.208,1.932.419,2.482.56V58.175a175.555,175.555,0,0,0-20.095-.3c-7.5.429-16.224-2.083-19.625-3.182a6.338,6.338,0,0,1-2.228-1.268c-5.28-4.611-7.255-8.216-6.856-9.614.045-.157.164-.575,1.094-.727,1.874-.3,4.947,1.645,8.216,5.219a3.655,3.655,0,0,0,2.359,1.174l6.815.64a3.188,3.188,0,0,0,2.214,2.349,21.331,21.331,0,0,0,6.766,1.041H33c2.217-.015,5.3-.374,7.413-2a.879.879,0,0,0-1.073-1.392c-3.112,2.4-9.789,1.743-12.653.7-.964-.351-1.145-.946-1.123-1.393,0-.024,0-.048.006-.072a1.575,1.575,0,0,1,.035-.207,1.485,1.485,0,0,1,1.511-1.2c2.791.33,8.187-1.889,12.547-5.158a4.839,4.839,0,0,1,1-.564l.012-.005c1.691-.722,4.27-.916,7.564-.557a.879.879,0,0,0,.19-1.748,20.2,20.2,0,0,0-7.226.273V35.391a.879.879,0,0,0-.879-.879H36.675a15.154,15.154,0,0,0,5.042-3.429.879.879,0,0,0-1.258-1.227,13.424,13.424,0,0,1-23.033-9.373V2.992A1.236,1.236,0,0,1,18.66,1.758H43.039a1.236,1.236,0,0,1,1.234,1.234V20.483a13.436,13.436,0,0,1-1.648,6.45.879.879,0,0,0,1.541.846A15.108,15.108,0,0,0,45.6,24.064a6.537,6.537,0,0,0,5.215,2.6.879.879,0,1,0,0-1.758,4.791,4.791,0,0,1-4.786-4.771v-.024a4.788,4.788,0,0,1,1.144-3.09v2.454a1.278,1.278,0,0,0,2.132.951l.916-.823.916.823a1.278,1.278,0,0,0,2.132-.951V16.013c.062.037.125.073.186.113a.879.879,0,0,0,.971-1.465,6.536,6.536,0,0,0-.851-.476A6.543,6.543,0,1,0,46.031,3.5v-.5A3,3,0,0,0,43.039,0H18.66a3,3,0,0,0-2.992,2.992v.5A6.543,6.543,0,1,0,8.121,14.185a6.55,6.55,0,0,0-.85.476.879.879,0,1,0,.971,1.466c.062-.041.125-.077.188-.115v3.46a1.278,1.278,0,0,0,2.132.951l.916-.823.916.823a1.278,1.278,0,0,0,2.132-.951V17.019a4.789,4.789,0,0,1,1.142,3.092v.016A4.791,4.791,0,0,1,10.882,24.9a.879.879,0,1,0,0,1.758A6.537,6.537,0,0,0,16.1,24.065,15.244,15.244,0,0,0,25.05,34.512H21.783a.879.879,0,0,0-.879.879v2.774a.879.879,0,0,0,1.758,0V36.27H39.441v4.581a6.2,6.2,0,0,0-.833.524c-4.376,3.282-9.267,5.055-11.287,4.819A3.182,3.182,0,0,0,24,48.363l-1.342-.126V41.719a.879.879,0,1,0-1.758,0v6.353l-3.683-.346a1.9,1.9,0,0,1-1.227-.61c-2.189-2.393-6.372-6.326-9.8-5.767a2.822,2.822,0,0,0-2.5,1.979c-.722,2.527,1.972,6.69,7.39,11.421a8.083,8.083,0,0,0,2.844,1.616c3.222,1.042,11.1,3.316,18.418,3.316.621,0,1.238-.016,1.848-.051A177.554,177.554,0,0,1,55,60q.036,0,.072,0a.879.879,0,0,0,.879-.879V42.078l0-.064A.887.887,0,0,0,55.314,41.233ZM46.031,15.657V14.08a6.561,6.561,0,0,0,1.086.641A6.533,6.533,0,0,0,46.031,15.657ZM51.077,18a1.276,1.276,0,0,0-1.708,0l-.437.392v-4.49a.32.32,0,0,1,.32-.32h1.941a.32.32,0,0,1,.32.32V18.4ZM46.031,5.941h0a4.784,4.784,0,1,1,6.762,6.64,2.074,2.074,0,0,0-1.6-.753H49.252A2.079,2.079,0,0,0,47.434,12.9a4.839,4.839,0,0,1-1.4-1.264v-5.7ZM12.768,18.4,12.332,18a1.276,1.276,0,0,0-1.708,0l-.436.392V13.917s0-.009,0-.013a.32.32,0,0,1,.32-.319h1.941a.32.32,0,0,1,.32.32V18.4Zm2.9-2.739a6.539,6.539,0,0,0-1.085-.936,6.567,6.567,0,0,0,1.085-.641Zm0-4.018h0a4.83,4.83,0,0,1-1.4,1.262,2.079,2.079,0,0,0-1.817-1.073H10.507a2.074,2.074,0,0,0-1.6.754,4.785,4.785,0,1,1,6.761-6.641v5.7Z"/>
        </g>
      </g>
      <g id="Group_125" data-name="Group 125">
        <g id="Group_124" data-name="Group 124">
          <path id="Path_25" data-name="Path 25" class="cls-1" d="M38.589,13.433A.879.879,0,0,0,38,12.861l-4.044-1.192L31.574,8.192a.879.879,0,0,0-1.45,0l-2.383,3.478L23.7,12.861a.879.879,0,0,0-.448,1.379l2.571,3.341L25.7,21.8a.879.879,0,0,0,1.173.852l3.972-1.413,3.972,1.413a.879.879,0,0,0,1.173-.852l-.116-4.214,2.571-3.341A.878.878,0,0,0,38.589,13.433Zm-4.294,3.325a.878.878,0,0,0-.182.56l.089,3.245-3.058-1.088a.878.878,0,0,0-.589,0L27.5,20.562l.089-3.245a.878.878,0,0,0-.182-.56l-1.98-2.573,3.114-.918a.879.879,0,0,0,.476-.346l1.835-2.678,1.835,2.678a.879.879,0,0,0,.476.346l3.114.918Z"/>
        </g>
      </g>
    </g>
  </g>
</svg>
