<svg xmlns="http://www.w3.org/2000/svg" xmlns:xlink="http://www.w3.org/1999/xlink" viewBox="7010 1398 60 60">
  <defs>
    <style>
      .cls-1 {
        fill: #3e3e3e;
      }

      .cls-2 {
        clip-path: url(#clip-path);
      }
    </style>
    <clipPath id="clip-path">
      <rect id="Rectangle_15" data-name="Rectangle 15" class="cls-1" width="60" height="60" transform="translate(96 2452)"/>
    </clipPath>
  </defs>
  <g id="Mask_Group_4" data-name="Mask Group 4" class="cls-2" transform="translate(6914 -1054)">
    <g id="target" transform="translate(96 2452)">
      <g id="Group_127" data-name="Group 127">
        <g id="Group_126" data-name="Group 126">
          <path id="Path_26" data-name="Path 26" class="cls-1" d="M45.026,16.578a25.787,25.787,0,0,0-8.462-6.087c-.3-.136-.609-.263-.917-.387a.886.886,0,0,0-.109-.147L26.652.284a.879.879,0,0,0-1.295,0l-8.971,9.767c-.016.017-.03.035-.044.053A25.89,25.89,0,0,0,6.262,50.852.879.879,0,1,0,7.6,49.715,24.119,24.119,0,0,1,43.734,17.77a.879.879,0,0,0,1.292-1.192ZM26,8.246a26.051,26.051,0,0,0-6.273.762L26,2.178l6.278,6.835A25.874,25.874,0,0,0,26,8.246Z"/>
        </g>
      </g>
      <g id="Group_129" data-name="Group 129">
        <g id="Group_128" data-name="Group 128">
          <path id="Path_27" data-name="Path 27" class="cls-1" d="M59.732,39.5l-3.2-4.97a.876.876,0,0,0,0-.814l3.2-4.97a.879.879,0,0,0-.9-1.339l-7.489,1.437a25.943,25.943,0,0,0-3.967-9.323.879.879,0,0,0-1.451.993,24.155,24.155,0,0,1,3.918,9.911l-1.255,2.819H45.567a19.583,19.583,0,1,0,0,1.758h3.017l1.256,2.82A24.12,24.12,0,0,1,10.215,52.356a.879.879,0,1,0-1.151,1.328A25.881,25.881,0,0,0,51.34,39.4l7.487,1.436a.879.879,0,0,0,.9-1.339Zm-44.321.926a.879.879,0,1,0,1.51-.9,10.568,10.568,0,1,1,19.614-6.282H31.467a5.533,5.533,0,1,0,0,1.758h5.068a10.567,10.567,0,0,1-17.576,7,.879.879,0,1,0-1.172,1.31A12.325,12.325,0,0,0,38.3,35h5.51a17.825,17.825,0,1,1,0-1.758H38.3a12.325,12.325,0,1,0-22.887,7.182ZM26,35h3.671a3.775,3.775,0,1,1,0-1.758H26A.879.879,0,0,0,26,35Zm25.7-4.438,5.441-1.044-2.4,3.724H50.508Zm0,7.118L50.508,35h4.236l2.4,3.724Z"/>
        </g>
      </g>
      <g id="Group_131" data-name="Group 131">
        <g id="Group_130" data-name="Group 130">
          <path id="Path_28" data-name="Path 28" class="cls-1" d="M26.073,25.137h-.137a.879.879,0,0,0,0,1.758h.137a.879.879,0,0,0,0-1.758Z"/>
        </g>
      </g>
      <g id="Group_133" data-name="Group 133">
        <g id="Group_132" data-name="Group 132">
          <path id="Path_29" data-name="Path 29" class="cls-1" d="M26.073,17.988h-.137a.879.879,0,0,0,0,1.758h.137a.879.879,0,0,0,0-1.758Z"/>
        </g>
      </g>
      <g id="Group_135" data-name="Group 135">
        <g id="Group_134" data-name="Group 134">
          <path id="Path_30" data-name="Path 30" class="cls-1" d="M26.073,11.466h-.137a.879.879,0,0,0,0,1.758h.137a.879.879,0,0,0,0-1.758Z"/>
        </g>
      </g>
      <g id="Group_137" data-name="Group 137">
        <g id="Group_136" data-name="Group 136">
          <path id="Path_31" data-name="Path 31" class="cls-1" d="M26.073,41.265h-.137a.879.879,0,1,0,0,1.758h.137a.879.879,0,0,0,0-1.758Z"/>
        </g>
      </g>
      <g id="Group_139" data-name="Group 139">
        <g id="Group_138" data-name="Group 138">
          <path id="Path_32" data-name="Path 32" class="cls-1" d="M26.073,48.413h-.137a.879.879,0,1,0,0,1.758h.137a.879.879,0,0,0,0-1.758Z"/>
        </g>
      </g>
      <g id="Group_141" data-name="Group 141">
        <g id="Group_140" data-name="Group 140">
          <path id="Path_33" data-name="Path 33" class="cls-1" d="M26.073,54.936h-.137a.879.879,0,0,0,0,1.758h.137a.879.879,0,0,0,0-1.758Z"/>
        </g>
      </g>
    </g>
  </g>
</svg>
