<svg xmlns="http://www.w3.org/2000/svg" xmlns:xlink="http://www.w3.org/1999/xlink" viewBox="6133 1769 60 60">
  <defs>
    <style>
      .cls-1 {
        fill: #3e3e3e;
      }

      .cls-2 {
        clip-path: url(#clip-path);
      }
    </style>
    <clipPath id="clip-path">
      <rect id="Rectangle_15" data-name="Rectangle 15" class="cls-1" width="60" height="60" transform="translate(96 2452)"/>
    </clipPath>
  </defs>
  <g id="Mask_Group_7" data-name="Mask Group 7" class="cls-2" transform="translate(6037 -683)">
    <g id="settings" transform="translate(96 2452)">
      <g id="Group_167" data-name="Group 167">
        <g id="Group_166" data-name="Group 166">
          <path id="Path_46" data-name="Path 46" class="cls-1" d="M46.282,42.324a.88.88,0,0,0-.987.755A5.413,5.413,0,0,1,34.52,42.36a5.35,5.35,0,0,1,.292-1.742l.735.73a2.678,2.678,0,0,0,3.766,0l3.544-3.522a5.4,5.4,0,0,1,2.017,2.336.879.879,0,1,0,1.6-.72,7.165,7.165,0,0,0-3.328-3.468.865.865,0,0,0-.123-.059A7.17,7.17,0,0,0,33.84,38.6a.871.871,0,0,0-.085.14,7.089,7.089,0,0,0-.994,3.625,7.171,7.171,0,0,0,14.275.951A.879.879,0,0,0,46.282,42.324Zm-6.351-5.355A5.415,5.415,0,0,1,41.1,37.1l-3.023,3a.916.916,0,0,1-1.288,0l-1.093-1.086A5.411,5.411,0,0,1,39.932,36.969Z"/>
        </g>
      </g>
      <g id="Group_169" data-name="Group 169">
        <g id="Group_168" data-name="Group 168">
          <path id="Path_47" data-name="Path 47" class="cls-1" d="M39.932,31.7A10.66,10.66,0,1,0,50.591,42.36,10.673,10.673,0,0,0,39.932,31.7Zm0,19.563a8.9,8.9,0,1,1,8.9-8.9A8.912,8.912,0,0,1,39.932,51.262Z"/>
        </g>
      </g>
      <g id="Group_171" data-name="Group 171">
        <g id="Group_170" data-name="Group 170">
          <path id="Path_48" data-name="Path 48" class="cls-1" d="M55.435,37.66H54.2a14.8,14.8,0,0,0-.837-2l.858-.852a2.245,2.245,0,0,0,0-3.185l-3.5-3.479a2.251,2.251,0,0,0-3.164,0l-.877.871c-.189-.095-.381-.184-.574-.271A2.676,2.676,0,0,0,48.362,26.1V19.655a2.675,2.675,0,0,0-2.672-2.672H43.874a19.144,19.144,0,0,0-1.236-2.959l1.268-1.26a2.673,2.673,0,0,0,0-3.791l-4.6-4.566a2.677,2.677,0,0,0-3.765,0L34.255,5.689a19.421,19.421,0,0,0-2.986-1.232V2.671A2.674,2.674,0,0,0,28.6,0h-6.51a2.674,2.674,0,0,0-2.672,2.671V4.458A19.42,19.42,0,0,0,16.429,5.69l-1.29-1.282a2.679,2.679,0,0,0-3.767,0l-4.6,4.566a2.673,2.673,0,0,0,0,3.791l1.268,1.26a19.131,19.131,0,0,0-1.236,2.959H4.992A2.675,2.675,0,0,0,2.32,19.655V26.1a2.675,2.675,0,0,0,2.672,2.672H6.808a19.131,19.131,0,0,0,1.236,2.96l-1.267,1.26a2.671,2.671,0,0,0,0,3.79l.893.887a.879.879,0,1,0,1.239-1.247l-.893-.887a.913.913,0,0,1,0-1.3L9.75,32.514A.879.879,0,0,0,9.9,31.458a17.339,17.339,0,0,1-1.589-3.806.879.879,0,0,0-.846-.639H4.992a.915.915,0,0,1-.914-.914V19.655a.915.915,0,0,1,.914-.914H7.46a.879.879,0,0,0,.846-.639A17.374,17.374,0,0,1,9.9,14.3a.879.879,0,0,0-.145-1.056L8.015,11.517a.915.915,0,0,1,0-1.3L12.61,5.655a.917.917,0,0,1,1.289,0l1.751,1.74a.88.88,0,0,0,1.047.144A17.657,17.657,0,0,1,20.53,5.96a.879.879,0,0,0,.642-.847V2.671a.914.914,0,0,1,.914-.913H28.6a.914.914,0,0,1,.914.913V5.113a.879.879,0,0,0,.642.846,17.643,17.643,0,0,1,3.832,1.58A.879.879,0,0,0,35.032,7.4l1.754-1.741a.915.915,0,0,1,1.287,0l4.6,4.566a.915.915,0,0,1,0,1.3l-1.736,1.724a.879.879,0,0,0-.146,1.056,17.366,17.366,0,0,1,1.589,3.8.879.879,0,0,0,.846.639H45.69a.915.915,0,0,1,.914.914V26.1a.915.915,0,0,1-.914.914H44.657v-.049a2.248,2.248,0,0,0-2.245-2.245H38.934a13.718,13.718,0,0,0-25.558-8.554.879.879,0,1,0,1.532.861,11.961,11.961,0,0,1,22.246,7.715,2.247,2.247,0,0,0-1.948,2.223v1.209a15.031,15.031,0,0,0-2.026.835l-.591-.587a9.14,9.14,0,1,0-7.25,3.565,2.244,2.244,0,0,0,.3,2.816l.026.026c-.107,0-.215.007-.323.007A11.968,11.968,0,0,1,13.762,19.877a.879.879,0,1,0-1.7-.44A13.725,13.725,0,0,0,25.342,36.593c.243,0,.486-.009.729-.021-.151.357-.29.72-.412,1.088H24.427A2.248,2.248,0,0,0,22.182,39.9V44h-.1a.915.915,0,0,1-.914-.914v-2.44a.879.879,0,0,0-.641-.846A17.715,17.715,0,0,1,16.7,38.217a.879.879,0,0,0-1.048.144L13.9,40.1a.917.917,0,0,1-1.289,0l-1.076-1.068A.879.879,0,0,0,10.3,40.28l1.076,1.067a2.679,2.679,0,0,0,3.767,0l1.29-1.281A19.5,19.5,0,0,0,19.415,41.3v1.786a2.675,2.675,0,0,0,2.672,2.672h.3a2.246,2.246,0,0,0,2.036,1.3h1.232a14.789,14.789,0,0,0,.837,2.005l-.857.852a2.245,2.245,0,0,0,0,3.185l3.5,3.479a2.25,2.25,0,0,0,3.165,0l.875-.87a15.033,15.033,0,0,0,2.027.836v1.209A2.247,2.247,0,0,0,37.451,60h4.96a2.248,2.248,0,0,0,2.245-2.245V56.546a15.034,15.034,0,0,0,2.025-.836l.876.87a2.25,2.25,0,0,0,3.164,0l3.5-3.479a2.245,2.245,0,0,0,0-3.185l-.858-.852a14.778,14.778,0,0,0,.837-2h1.232a2.247,2.247,0,0,0,2.245-2.245v-4.91A2.247,2.247,0,0,0,55.435,37.66ZM25.342,30.229a7.351,7.351,0,1,1,7.376-7.351,7.3,7.3,0,0,1-1.657,4.639,2.243,2.243,0,0,0-1.922.622L27.3,29.966A7.409,7.409,0,0,1,25.342,30.229ZM55.435,45.3H53.555a.879.879,0,0,0-.846.639,13.021,13.021,0,0,1-1.192,2.854.879.879,0,0,0,.146,1.056l1.322,1.313a.487.487,0,0,1,0,.691l-3.5,3.479a.488.488,0,0,1-.687,0l-1.335-1.326a.879.879,0,0,0-1.047-.144,13.269,13.269,0,0,1-2.875,1.185.879.879,0,0,0-.641.846v1.859a.488.488,0,0,1-.487.487h-4.96a.488.488,0,0,1-.487-.487V55.9a.879.879,0,0,0-.642-.846,13.259,13.259,0,0,1-2.876-1.185.879.879,0,0,0-1.048.144l-1.334,1.326a.488.488,0,0,1-.687,0l-3.5-3.479a.487.487,0,0,1,0-.691L28.2,49.851a.879.879,0,0,0,.146-1.056,13.019,13.019,0,0,1-1.191-2.854.879.879,0,0,0-.846-.639H24.428a.488.488,0,0,1-.487-.487v-4.91a.488.488,0,0,1,.487-.487h1.881a.879.879,0,0,0,.846-.639,13.029,13.029,0,0,1,1.192-2.854.879.879,0,0,0-.146-1.056l-1.322-1.313a.487.487,0,0,1,0-.691l3.5-3.479a.489.489,0,0,1,.687,0L32.4,30.712a.879.879,0,0,0,1.047.144,13.256,13.256,0,0,1,2.875-1.184.879.879,0,0,0,.642-.847v-1.86a.488.488,0,0,1,.487-.487h4.96a.488.488,0,0,1,.487.487v.919s0,.006,0,.009,0,.006,0,.009v.923a.879.879,0,0,0,.642.846,13.275,13.275,0,0,1,2.875,1.184.879.879,0,0,0,1.047-.144L48.8,29.386a.488.488,0,0,1,.687,0l3.5,3.479a.487.487,0,0,1,0,.691l-1.322,1.313a.879.879,0,0,0-.146,1.056,13.031,13.031,0,0,1,1.192,2.854.879.879,0,0,0,.846.639h1.881a.488.488,0,0,1,.487.487v4.91h0A.488.488,0,0,1,55.435,45.3Z"/>
        </g>
      </g>
    </g>
  </g>
</svg>
