<svg xmlns="http://www.w3.org/2000/svg" xmlns:xlink="http://www.w3.org/1999/xlink" viewBox="6572 1769 60 60">
  <defs>
    <style>
      .cls-1 {
        fill: #3e3e3e;
      }

      .cls-2 {
        clip-path: url(#clip-path);
      }
    </style>
    <clipPath id="clip-path">
      <rect id="Rectangle_15" data-name="Rectangle 15" class="cls-1" width="60" height="60" transform="translate(96 2452)"/>
    </clipPath>
  </defs>
  <g id="Mask_Group_8" data-name="Mask Group 8" class="cls-2" transform="translate(6476 -683)">
    <g id="idea" transform="translate(96 2452)">
      <g id="Group_173" data-name="Group 173">
        <g id="Group_172" data-name="Group 172">
          <path id="Path_49" data-name="Path 49" class="cls-1" d="M32.61,41.38a.879.879,0,0,0-1.136.5c-.432,1.122-.742,2.071-.924,2.661H28.172V33.537l4.856-5.708a.879.879,0,0,0-1.339-1.139l-1.948,2.289-2.563-2.162a.879.879,0,0,0-1.188.051l-1.3,1.3-1.3-1.3a.879.879,0,0,0-1.188-.051L19.606,29,17.641,26.69A.879.879,0,0,0,16.3,27.829l4.856,5.708V44.545H18.785c-.532-1.769-2.174-6.682-4.809-9.744A14.121,14.121,0,0,1,12.3,18.825a.879.879,0,0,0-1.541-.846,15.879,15.879,0,0,0,1.883,17.969c2.212,2.57,3.717,6.766,4.326,8.686a.878.878,0,0,0-.5.79v9.7a.879.879,0,0,0,.879.879H19.8a4.961,4.961,0,0,0,9.735,0h2.445a.879.879,0,0,0,.879-.879v-9.7a.878.878,0,0,0-.491-.788c.178-.551.429-1.289.75-2.12A.879.879,0,0,0,32.61,41.38ZM20.745,30.339l1.965-1.657L24.033,30a.879.879,0,0,0,.621.257h.063A.879.879,0,0,0,25.339,30l1.323-1.323,1.94,1.636-1.979,2.326a.879.879,0,0,0-.209.569v6.959h-3.5V33.214a.879.879,0,0,0-.209-.569ZM26.414,41.93v2.615h-3.5V41.93Zm-1.75,16.312A3.21,3.21,0,0,1,21.608,56h6.113A3.209,3.209,0,0,1,24.665,58.242Zm6.434-9.3h-2.32a.879.879,0,0,0,0,1.758H31.1v3.537H18.231V50.7h6.455a.879.879,0,0,0,0-1.758H18.231V46.3H31.1Z"/>
        </g>
      </g>
      <g id="Group_175" data-name="Group 175">
        <g id="Group_174" data-name="Group 174">
          <path id="Path_50" data-name="Path 50" class="cls-1" d="M24.665,0a.879.879,0,0,0-.879.879v5.2a.879.879,0,0,0,1.758,0V.879A.879.879,0,0,0,24.665,0Z"/>
        </g>
      </g>
      <g id="Group_177" data-name="Group 177">
        <g id="Group_176" data-name="Group 176">
          <path id="Path_51" data-name="Path 51" class="cls-1" d="M14.468,8.891,10.829,5.252A.879.879,0,0,0,9.586,6.495l3.639,3.639a.879.879,0,0,0,1.243-1.243Z"/>
        </g>
      </g>
      <g id="Group_179" data-name="Group 179">
        <g id="Group_178" data-name="Group 178">
          <path id="Path_52" data-name="Path 52" class="cls-1" d="M39.744,5.252a.879.879,0,0,0-1.243,0L34.862,8.891A.879.879,0,0,0,36.1,10.134l3.639-3.639A.879.879,0,0,0,39.744,5.252Z"/>
        </g>
      </g>
      <g id="Group_181" data-name="Group 181">
        <g id="Group_180" data-name="Group 180">
          <path id="Path_53" data-name="Path 53" class="cls-1" d="M50.679,42.919l-3.966-3.966,2.132-1a1.743,1.743,0,0,0-.151-3.22l-9.272-3.322a15.709,15.709,0,0,0,1.1-5.8,15.859,15.859,0,0,0-27.29-10.987A.879.879,0,1,0,14.5,15.843,14.1,14.1,0,0,1,37.766,30.82l-1.94-.7A1.743,1.743,0,0,0,33.6,32.353l1.153,3.219a21.517,21.517,0,0,0-1.718,2.814.879.879,0,1,0,1.561.808q.438-.846.892-1.572l2.722,7.6a1.743,1.743,0,0,0,3.22.151l1-2.132,3.966,3.966a1.745,1.745,0,0,0,2.465,0l1.822-1.822a1.743,1.743,0,0,0,0-2.465Zm-3.055,3.034-4.842-4.842a.879.879,0,0,0-1.418.249L39.85,44.594l-4.587-12.8,12.8,4.588-3.235,1.514a.879.879,0,0,0-.249,1.418l4.842,4.842Z"/>
        </g>
      </g>
    </g>
  </g>
</svg>
